<svg width="78" height="96" viewBox="0 0 78 96" fill="none" xmlns="http://www.w3.org/2000/svg">
<rect width="1440" height="3659" transform="translate(-143 -3060)" fill="white"/>
<rect x="-23" y="-24" width="1200" height="250" fill="#FBFBFB"/>
<circle cx="37" cy="59" r="37" fill="#46A358" fill-opacity="0.13"/>
<g clip-path="url(#clip0_2_2)">
<path d="M28.1293 47.3569C40.7023 49.0205 53.3918 49.282 66.0231 48.1369C66.8795 48.0602 66.8885 46.7077 66.0231 46.7844C53.3918 47.9295 40.7023 47.668 28.1293 46.0044C27.2773 45.8917 27.2818 47.2487 28.1293 47.3569Z" fill="#727272"/>
<path d="M31.0304 93.0307C36.465 93.725 41.9354 94.0631 47.4147 93.9865C52.235 93.9189 57.9251 94.1308 62.4449 92.2237C63.2296 91.8901 62.8843 90.5827 62.0862 90.9208C57.4498 92.8775 51.5086 92.6115 46.5493 92.643C41.3569 92.6791 36.178 92.3365 31.0259 91.6782C30.174 91.57 30.1785 92.9225 31.0304 93.0307Z" fill="#727272"/>
<path d="M27.6047 46.3155C21.3316 52.1673 18.4081 60.8909 19.0986 69.3981C19.4529 73.7937 20.6904 78.0675 22.5513 82.0529C24.2462 85.6866 26.7438 90.8937 30.4923 92.7827C31.2636 93.1704 31.9451 92.0072 31.1694 91.615C27.6809 89.8568 25.3089 84.7939 23.7126 81.3721C21.8563 77.3823 20.6411 73.0498 20.39 68.6452C19.9416 60.706 22.7127 52.7218 28.5597 47.2713C29.1965 46.6807 28.2414 45.7249 27.6047 46.3155Z" fill="#727272"/>
<path d="M65.5478 47.9522C72.1661 52.1223 72.7893 61.1164 72.6279 68.199C72.4486 76.0975 71.4755 88.6126 62.0862 90.9209C61.2477 91.1283 61.6019 92.4312 62.4449 92.2238C72.2468 89.8163 73.6547 77.3959 73.9507 69.0375C74.2242 61.2156 73.5337 51.3875 66.2248 46.7845C65.4895 46.3247 64.8169 47.4923 65.5478 47.9522Z" fill="#727272"/>
<path d="M32.5774 47.366C27.6406 52.7084 25.4614 61.6303 26.2954 68.785C26.7797 72.9462 28.089 77.0758 29.062 81.1378C30.0395 85.2088 31.0484 89.2483 33.2634 92.8414C33.7208 93.5807 34.8821 92.9 34.4248 92.1606C32.3442 88.7884 31.3757 85.0195 30.4565 81.2009C29.5687 77.5221 28.5329 73.8388 27.8468 70.1195C26.5465 63.0369 28.5822 53.6777 33.528 48.3218C34.1154 47.6816 33.1648 46.7259 32.5774 47.366Z" fill="#727272"/>
<path d="M39.2405 47.9295C35.5637 54.4395 33.6311 61.8331 33.7297 69.3259C33.7791 72.9235 34.2902 76.5257 35.2677 79.9881C36.4829 84.2845 38.3303 88.36 39.1374 92.7736C39.2943 93.6302 40.5902 93.265 40.4332 92.413C39.7292 88.5493 38.2361 84.9517 37.0478 81.2278C35.8955 77.6122 35.2049 73.8838 35.0884 70.0833C34.8552 62.5679 36.7116 55.1427 40.4018 48.6102C40.8323 47.8528 39.6709 47.1721 39.2405 47.9295Z" fill="#727272"/>
<path d="M43.2043 49.2234C44.4822 56.7343 42.9308 64.2586 43.0608 71.8011C43.1191 75.2454 43.8858 78.4508 44.3342 81.8411C44.8006 85.3621 44.0024 88.9822 43.5675 92.4762C43.4599 93.3373 44.8051 93.3282 44.9127 92.4762C45.3521 88.9507 46.1458 85.3034 45.6794 81.7509C45.2041 78.1172 44.4015 74.6728 44.397 70.976C44.388 63.5779 45.7512 56.2339 44.5001 48.8673C44.3522 48.0107 43.0563 48.3714 43.2043 49.2234Z" fill="#727272"/>
<path d="M48.2487 48.5968C50.6118 55.3818 50.8987 62.541 51.1364 69.6596C51.3965 77.3914 51.0108 85.0014 49.576 92.6114C49.4146 93.4635 50.7104 93.8287 50.8718 92.9721C52.3291 85.2448 52.7461 77.5086 52.4816 69.6596C52.2394 62.4238 51.9435 55.1293 49.5446 48.2361C49.2621 47.4246 47.9618 47.7762 48.2487 48.5968Z" fill="#727272"/>
<path d="M53.9075 48.6284C54.4052 50.1567 55.4813 51.1756 56.3064 52.519C57.248 54.0519 57.7637 55.7876 58.0417 57.5548C58.647 61.4139 58.36 65.4534 58.3511 69.3441C58.3421 73.5774 58.6649 78.0541 57.5753 82.1882C56.6158 85.8174 54.4142 88.9462 53.6788 92.652C53.5084 93.5041 54.8043 93.8648 54.9747 93.0127C55.7638 89.0454 58.2031 85.6867 59.064 81.7374C59.9473 77.698 59.6873 73.4511 59.6962 69.3441C59.7052 65.5481 59.9339 61.6664 59.4362 57.8929C59.2165 56.2249 58.8398 54.5748 58.1224 53.051C57.3242 51.3514 55.7862 50.0575 55.2078 48.2722C54.9343 47.4472 53.634 47.7988 53.9075 48.6284Z" fill="#727272"/>
<path d="M60.4495 48.4163C63.1219 50.941 64.4088 54.9714 65.3729 58.4518C66.3773 62.0765 66.041 65.9447 65.8168 69.655C65.3639 77.1839 64.0994 84.7038 60.5078 91.4121C60.0953 92.1785 61.2566 92.8638 61.6692 92.0929C65.4984 84.9382 66.7764 76.8954 67.2023 68.8706C67.4176 64.8311 67.5924 60.8863 66.3324 56.9957C65.2384 53.6189 64.0322 49.9492 61.4001 47.4561C60.7724 46.8655 59.8173 47.8212 60.4495 48.4163Z" fill="#727272"/>
<path d="M32.4697 51.7977C32.3307 52.1538 32.1783 52.5055 32.0124 52.8526C31.8016 53.2899 32.0482 53.8895 32.5953 53.8715C32.9854 53.858 33.2948 53.6822 33.5728 53.4162C33.6625 53.3305 33.7521 53.2403 33.8373 53.1547C33.9494 53.042 33.8015 53.2223 33.8867 53.1186C33.8687 53.1457 33.7746 53.1367 33.8598 53.1457C33.6445 52.8616 33.4293 52.5731 33.2096 52.2891C33.1513 52.5911 33.0885 52.8932 33.0302 53.1998C32.9585 53.5559 33.1334 53.9301 33.501 54.0338C33.8329 54.124 34.2588 53.9211 34.3306 53.5604C34.3889 53.2584 34.4516 52.9563 34.5099 52.6498C34.5996 52.1899 34.3171 51.8383 33.8598 51.7932C33.4876 51.7571 33.1513 51.9555 32.8867 52.1989C32.7926 52.2846 32.7119 52.3747 32.6177 52.4604C32.5863 52.4875 32.5594 52.5145 32.528 52.5416C32.5415 52.528 32.5549 52.519 32.5684 52.5055C32.5011 52.5416 32.5011 52.5461 32.5774 52.5145C32.5011 52.5325 32.5056 52.537 32.5908 52.5145C32.7836 52.8526 32.9764 53.1908 33.1737 53.5334C33.3889 53.0826 33.5862 52.6227 33.7656 52.1583C33.8956 51.8157 33.6221 51.4145 33.2948 51.3243C32.9181 51.2206 32.6043 51.4551 32.4697 51.7977Z" fill="#727272"/>
<path d="M29.1382 59.8902C29.0754 60.2689 29.0127 60.6476 28.9499 61.0217C28.9006 61.3238 28.9813 61.6213 29.2593 61.7836C29.5059 61.9279 29.8781 61.9009 30.0754 61.68C30.2054 61.5312 30.3354 61.3824 30.4655 61.2336C30.5506 61.1345 30.6717 60.9496 30.7748 60.8955C30.6627 60.9271 30.5506 60.9586 30.4341 60.9857C30.4565 60.9812 30.4834 60.9812 30.5058 60.9767C30.3937 60.9451 30.2816 60.9135 30.165 60.8865C30.183 60.9 30.2009 60.9135 30.2188 60.9271C30.1067 60.7332 29.9946 60.5394 29.887 60.341C29.9229 60.7287 29.8153 61.1615 29.7704 61.5537C29.7077 62.1173 30.3758 62.3246 30.7838 62.1398C31.3129 61.8918 31.6672 61.4365 31.8555 60.891C31.4788 60.9902 31.1067 61.0894 30.73 61.1886C30.7166 61.1029 30.7031 61.0172 30.6897 60.9316C30.4699 61.7746 31.7703 62.1353 31.9855 61.2922C32.0842 60.909 31.9945 60.4898 31.6806 60.2328C31.277 59.9037 30.7345 60.0209 30.5551 60.5303C30.4744 60.7558 30.3085 60.873 30.1023 60.9722C30.4386 61.166 30.7748 61.3599 31.1156 61.5582C31.1829 60.9541 31.5057 59.8811 30.6807 59.6512C29.9857 59.4574 29.4969 60.2869 29.1203 60.7242C29.4969 60.9451 29.8691 61.1615 30.2457 61.3824C30.3085 61.0037 30.3713 60.625 30.4341 60.2508C30.4924 59.8902 30.3399 59.5205 29.9633 59.4168C29.6449 59.3311 29.1965 59.5295 29.1382 59.8902Z" fill="#727272"/>
<path d="M28.5597 68.0367C28.6046 68.5687 28.6539 69.1007 28.6987 69.6281C28.766 70.381 29.7749 70.5568 30.0215 69.8085C30.156 69.3937 30.3443 69.0195 30.582 68.6498C30.174 68.5957 29.7614 68.5416 29.3534 68.4875C29.5103 68.8798 29.6179 69.281 29.6762 69.7048C29.7435 70.1827 30.3219 70.2638 30.6627 70.1105C30.8331 70.0339 30.9721 69.8851 31.0618 69.7228C31.1021 69.6507 31.1335 69.565 31.1604 69.4884C31.1739 69.4478 31.1828 69.4072 31.1963 69.3666C31.2187 69.299 31.2097 69.3035 31.1784 69.3802C31.0797 69.4388 30.9811 69.4974 30.8824 69.556C30.9048 69.547 30.9317 69.5425 30.9542 69.5335C30.8331 69.5335 30.7165 69.5335 30.5954 69.5335C30.5865 69.5289 30.5775 69.5244 30.573 69.5154C30.4923 69.4343 30.4116 69.3531 30.3309 69.272C30.3443 69.29 30.3533 69.308 30.3668 69.3261C30.3443 69.1503 30.3219 68.9789 30.2995 68.8031C30.295 68.8257 30.295 68.8482 30.2905 68.8662C30.2412 69.2269 30.3757 69.5921 30.7614 69.7003C31.0752 69.7859 31.5416 69.5921 31.5909 69.2269C31.6312 68.9339 31.6088 68.6679 31.3936 68.447C31.2142 68.2666 30.9407 68.181 30.6896 68.208C30.4295 68.2396 30.2009 68.3929 30.0619 68.6138C30.0036 68.7084 29.9229 68.8392 29.9184 68.9474C29.9139 69.1052 29.8466 68.9925 29.9901 68.9293C30.3174 69.0646 30.6493 69.1998 30.9766 69.3351C30.9183 68.9158 30.8107 68.5146 30.6537 68.1178C30.4385 67.5859 29.757 67.4326 29.4251 67.9555C29.1292 68.4199 28.9005 68.9158 28.7301 69.4343C29.1696 69.4929 29.609 69.556 30.0529 69.6146C30.0081 69.0826 29.9587 68.5506 29.9139 68.0232C29.8825 67.658 29.6269 67.3469 29.2413 67.3469C28.896 67.3604 28.5284 67.6715 28.5597 68.0367Z" fill="#727272"/>
<path d="M30.1784 77.5762C30.2233 78.3561 30.6134 79.0369 31.2905 79.4336C31.7389 79.6906 32.2949 79.3615 32.3038 78.8475C32.3083 78.4508 32.398 78.0856 32.5505 77.7204C32.1738 77.8196 31.8016 77.9188 31.425 78.018C31.6088 78.2434 31.8061 78.4418 32.0258 78.6266C32.3845 78.9287 33.0392 78.8701 33.1513 78.3291C33.1782 78.2073 33.2096 78.1036 33.2499 77.9909C32.8733 78.0901 32.5011 78.1893 32.1245 78.2885C32.1648 78.2659 32.1873 78.293 32.1828 78.3651C32.3263 78.7033 32.8195 78.7754 33.102 78.6086C33.4472 78.4057 33.4876 78.0225 33.3441 77.6844C33.2858 77.5491 33.1917 77.4274 33.0751 77.3327C32.6581 77.0036 32.1469 77.1253 31.9496 77.6303C31.9048 77.743 31.8734 77.8512 31.851 77.9684C32.2276 77.8692 32.5998 77.77 32.9764 77.6708C32.7567 77.486 32.5594 77.2831 32.3756 77.0622C32.0169 76.6204 31.425 76.9495 31.2501 77.3598C31.0528 77.8331 30.9631 78.3336 30.9542 78.8475C31.2905 78.6537 31.6268 78.4598 31.9675 78.2614C31.7075 78.1127 31.5371 77.8782 31.5191 77.5717C31.4743 76.7151 30.1291 76.7061 30.1784 77.5762Z" fill="#727272"/>
<path d="M32.9496 86.8498C33.1065 87.2555 33.2948 87.6297 33.5504 87.9859C33.9495 88.5359 34.7431 88.333 34.8059 87.6433C34.8104 87.6027 34.8821 87.1023 34.8552 87.0797C34.6624 87.2014 34.4741 87.3232 34.2813 87.4449C34.3261 87.508 34.3665 87.5666 34.4158 87.6252C34.5862 87.8416 34.7969 88.0265 35.0705 88.1031C35.2812 88.1572 35.5278 88.1302 35.7117 88.0129C35.8327 87.9318 35.9179 87.8371 35.9807 87.7064C36.0031 87.6523 36.0255 87.5982 36.048 87.5441C36.1511 87.2195 35.9538 87.1654 35.4606 87.3818C35.7296 88.2023 37.0299 87.8506 36.7564 87.0211C36.5681 86.4531 36.0211 86.0834 35.4247 86.3088C35.1826 86.4035 34.9718 86.5838 34.8552 86.8182C34.8194 86.8904 34.6893 87.2014 34.7342 87.2916C34.9942 87.1428 35.2498 86.9896 35.5099 86.8408C35.474 86.7957 35.4381 86.7551 35.4068 86.71C35.1915 86.2727 34.5683 86.0248 34.1199 86.1871C33.4876 86.4125 33.5145 87.0887 33.4652 87.6478C33.8822 87.5351 34.2992 87.4224 34.7207 87.3051C34.5369 87.0527 34.371 86.7867 34.2544 86.4936C33.9315 85.6912 32.6312 86.0383 32.9496 86.8498Z" fill="#727272"/>
<path d="M40.1373 51.9824C39.6531 52.3476 39.2495 52.7804 38.985 53.3349C38.6397 54.0563 39.4423 54.6243 40.0432 54.1555C40.1867 54.0427 40.3301 53.93 40.4736 53.8173C40.5364 53.7677 40.5992 53.7181 40.6664 53.6686C40.6978 53.6415 40.7292 53.619 40.7606 53.5919C40.8727 53.5108 40.8144 53.5243 40.5857 53.628C40.4736 53.5964 40.3615 53.5649 40.2449 53.5378C40.2584 53.5468 40.2718 53.5558 40.2853 53.5649C40.2046 53.4837 40.1239 53.4026 40.0432 53.3214C40.0297 53.2628 40.0118 53.2087 39.9983 53.1501C40.0028 53.087 40.0028 53.078 39.9894 53.1321C39.958 53.1546 39.949 53.3079 39.949 53.3304C39.9176 53.5378 39.9356 53.7407 40.0432 53.93C40.1418 54.1014 40.3167 54.2546 40.5095 54.3042C40.5902 54.3268 40.6933 54.3358 40.7785 54.3358C40.8592 54.3358 40.931 54.3223 41.0027 54.2952C41.0969 54.2682 41.0655 54.2591 40.9041 54.2682C40.8054 54.2096 40.7068 54.1509 40.6081 54.0923C40.6216 54.1059 40.635 54.1194 40.6485 54.1329C40.5902 54.0337 40.5319 53.9345 40.4736 53.8354C40.4781 53.8489 40.4826 53.8669 40.4871 53.8804C40.5095 53.7046 40.5319 53.5333 40.5543 53.3575C40.5454 53.371 40.5409 53.3845 40.5319 53.3981C40.1239 54.1645 41.2852 54.8497 41.6933 54.0788C41.8681 53.7542 41.8278 53.389 41.5543 53.1321C41.4108 52.9968 41.218 52.9157 41.0207 52.9112C40.9086 52.9066 40.7785 52.9788 40.6799 52.9698C40.792 53.0013 40.9041 53.0329 41.0207 53.0599C41.0027 53.0464 40.9848 53.0329 40.9713 53.0239C41.0521 53.105 41.1328 53.1862 41.2135 53.2673C41.2045 53.2493 41.1955 53.2312 41.1866 53.2132C41.218 53.3259 41.2493 53.4386 41.2762 53.5558C41.2673 53.4702 41.2807 53.5153 41.3121 53.389C41.348 53.2312 41.3525 53.0599 41.3166 52.8976C41.2404 52.573 40.9982 52.3386 40.6754 52.28C40.3391 52.2169 40.1104 52.3927 39.8548 52.5911C39.5993 52.7894 39.3437 52.9923 39.0881 53.1907C39.4423 53.4657 39.7921 53.7362 40.1463 54.0112C40.3077 53.6776 40.514 53.371 40.8144 53.1456C41.1059 52.9292 41.2538 52.5595 41.0565 52.2214C40.8906 51.9374 40.4333 51.766 40.1373 51.9824Z" fill="#727272"/>
<path d="M37.5052 59.5925C37.3931 60.1335 37.2855 60.6745 37.1734 61.22C37.0344 61.9097 37.7788 62.3065 38.2989 61.8782C38.4513 61.7519 38.5859 61.5941 38.6845 61.4228C38.7518 61.3056 38.8325 61.0667 38.8684 61.0081C38.7876 61.0892 38.7069 61.1704 38.6262 61.2515C38.6486 61.238 38.6666 61.2245 38.689 61.2064C38.5769 61.238 38.4648 61.2696 38.3482 61.2966C38.3751 61.2921 38.402 61.2921 38.4289 61.2876C38.3168 61.256 38.2047 61.2245 38.0881 61.1974C37.9805 61.1478 37.976 60.972 38.0074 61.2019C38.0164 61.2605 38.0299 61.3101 38.0478 61.3642C38.1106 61.5671 38.2227 61.7474 38.3931 61.8737C38.55 61.9909 38.7338 62.054 38.9311 62.0495C39.0522 62.045 39.1643 62.0134 39.2719 61.9593C39.3302 61.9368 39.3795 61.9052 39.4244 61.8646C39.5409 61.7835 39.5096 61.788 39.3347 61.8692C39.2226 61.8376 39.1105 61.806 38.9939 61.779C39.0118 61.788 39.0163 61.797 39.0298 61.8331C39.3167 62.6491 40.6171 62.2974 40.3256 61.4724C40.2001 61.1163 40.0162 60.7872 39.671 60.6113C39.4916 60.5167 39.2674 60.4896 39.0701 60.5347C38.8728 60.5798 38.7563 60.7105 38.5859 60.7917C38.698 60.7601 38.8101 60.7286 38.9266 60.7015C38.9042 60.7015 38.8773 60.7015 38.8549 60.7015C38.967 60.7331 39.0791 60.7646 39.1957 60.7917C39.3167 61.0036 39.3526 61.0351 39.3033 60.8863C39.2943 60.8277 39.2854 60.7691 39.2764 60.7105C39.245 60.5933 39.1957 60.4716 39.1329 60.3724C38.967 60.1109 38.6935 59.9396 38.3841 59.9441C38.0792 59.9486 37.8012 60.1244 37.6577 60.3904C37.5366 60.6158 37.5456 60.7511 37.3393 60.9224C37.716 61.1433 38.0881 61.3597 38.4648 61.5806C38.5769 61.0396 38.6845 60.4986 38.7966 59.9576C38.976 59.1011 37.6801 58.7404 37.5052 59.5925Z" fill="#727272"/>
<path d="M36.9851 66.5039C36.8461 67.2298 36.7564 67.9601 36.734 68.695C36.716 69.2089 37.3169 69.5335 37.7473 69.281C37.9446 69.1638 38.0881 69.006 38.1957 68.8032C38.2361 68.7265 38.3527 68.5507 38.3303 68.4831C38.3258 68.4741 38.2854 68.5327 38.3034 68.5236C38.1913 68.5552 38.0792 68.5868 37.9626 68.6138C37.9536 68.6183 37.9402 68.6183 37.9312 68.6228C37.8505 68.5417 37.7698 68.4605 37.6891 68.3794C37.7653 68.4786 37.7563 68.4695 37.7653 68.5732C37.8146 69.1278 38.4782 69.4974 38.9132 69.0511C38.9625 68.997 39.0118 68.9474 39.0656 68.8978C38.9715 68.9429 38.8728 68.9339 38.7787 68.8798C38.7204 68.7806 38.6621 68.6814 38.6038 68.5823C38.6127 68.6093 38.6217 68.6364 38.6352 68.6634C38.7607 69.006 39.0925 69.2405 39.4647 69.1368C39.792 69.0466 40.0611 68.6499 39.9355 68.3027C39.5858 67.347 38.5679 67.4687 37.9626 68.0954C38.3437 68.2531 38.7293 68.4154 39.1105 68.5732C39.0567 67.9195 38.7338 67.2117 37.9626 67.2613C37.6487 67.2793 37.3707 67.4642 37.2048 67.7302C37.1465 67.8249 37.1061 67.9331 37.0613 68.0367C37.012 68.1495 36.9268 68.19 37.0658 68.1089C37.4021 68.3027 37.7384 68.4966 38.0792 68.695C38.0971 68.0773 38.1644 67.4687 38.2809 66.8601C38.4468 66.0125 37.151 65.6518 36.9851 66.5039Z" fill="#727272"/>
<path d="M37.6532 74.2265C37.8056 74.8306 37.9895 75.4212 38.2047 76.0028C38.3796 76.4761 38.9401 76.6745 39.3302 76.3003C39.5006 76.1335 39.6171 75.9396 39.6754 75.7052C39.6979 75.6105 39.7158 75.4978 39.7203 75.4031C39.7337 75.1146 39.7023 75.3536 39.7292 75.34C39.6171 75.3716 39.505 75.4031 39.3885 75.4302C39.4198 75.4302 39.4468 75.4257 39.4781 75.4257C39.366 75.3941 39.2539 75.3626 39.1374 75.3355C39.0477 75.2949 39.0746 75.2544 39.1463 75.3806C39.1822 75.4437 39.2136 75.4978 39.2584 75.5564C39.3974 75.7368 39.5678 75.8585 39.7965 75.89C39.9983 75.9171 40.1911 75.8675 40.3615 75.7503C40.4556 75.6827 40.5408 75.606 40.6036 75.5068C40.6305 75.4527 40.6574 75.3986 40.6798 75.3445C40.7695 75.1687 40.6933 75.2138 40.4512 75.4843C40.3301 75.4843 40.2135 75.4843 40.0924 75.4843C40.0386 75.4392 39.9893 75.3896 39.9355 75.3445C39.9041 75.2318 39.8727 75.1191 39.8458 75.0019C39.8458 75.029 39.8458 75.056 39.8458 75.0831C39.8324 75.9532 41.1776 75.9532 41.191 75.0831C41.2 74.6277 40.8861 74.2716 40.4512 74.1814C40.218 74.1318 39.9848 74.1814 39.792 74.3211C39.6979 74.3888 39.6216 74.4654 39.5589 74.5601C39.5454 74.5871 39.5319 74.6187 39.514 74.6457C39.3974 74.8712 39.4288 74.8667 39.6127 74.6322C39.7248 74.6007 39.8369 74.5691 39.9534 74.5421C39.931 74.5466 39.9086 74.5466 39.8862 74.5511C39.9983 74.5826 40.1104 74.6142 40.227 74.6412C40.4198 74.7359 40.3211 74.7044 40.2494 74.5781C40.1956 74.4789 40.1238 74.3843 40.0431 74.3121C39.7875 74.0822 39.4512 74.0236 39.1329 74.1363C38.8773 74.2265 38.6845 74.4248 38.5544 74.6548C38.4827 74.7855 38.4468 74.9162 38.4199 75.0605C38.4065 75.1236 38.4199 75.304 38.3796 75.3445C38.7562 75.4437 39.1284 75.5429 39.505 75.6421C39.2898 75.0605 39.106 74.4654 38.9535 73.8658C38.7338 73.0273 37.4379 73.3834 37.6532 74.2265Z" fill="#727272"/>
<path d="M38.3302 80.6869C38.5724 81.4037 38.8818 82.0935 39.2629 82.7427C39.5364 83.207 40.1418 83.1529 40.4242 82.7427C40.5005 82.63 40.5543 82.5128 40.5901 82.382C40.5946 82.3414 40.5991 82.3054 40.6081 82.2648C40.6798 82.0033 40.617 82.0123 40.4108 82.2964C40.2897 82.2964 40.1731 82.2964 40.0521 82.2964C39.8637 82.2378 39.9489 82.2513 40.0476 82.3595C40.1193 82.4361 40.209 82.5173 40.3032 82.5714C40.496 82.6796 40.7247 82.7202 40.9444 82.7021C41.4466 82.6661 41.7918 82.3324 41.9577 81.8771C42.2582 81.0611 40.9578 80.7049 40.6619 81.5164C40.7471 81.291 40.9578 81.4172 40.922 81.309C40.8951 81.2324 40.7381 81.1287 40.6664 81.0881C40.4467 80.9619 40.1821 80.9349 39.9445 81.016C39.7247 81.0881 39.5499 81.2549 39.4378 81.4578C39.3391 81.6382 39.366 81.9086 39.2584 82.0619C39.644 82.0619 40.0341 82.0619 40.4198 82.0619C40.0924 81.5074 39.8279 80.9394 39.6216 80.3307C39.3526 79.5102 38.0522 79.8619 38.3302 80.6869Z" fill="#727272"/>
<path d="M40.1014 88.4008C40.1059 88.775 40.1597 89.1492 40.2763 89.5008C40.3615 89.7578 40.5633 89.9471 40.8368 89.9832C41.0834 90.0148 41.3928 89.9021 41.5049 89.6586C41.5811 89.4963 41.6574 89.334 41.7336 89.1762C41.7695 89.0996 41.8053 89.0274 41.8367 88.9508C41.8546 88.9147 41.8726 88.8742 41.8905 88.8381C41.9264 88.7705 41.9264 88.7705 41.8905 88.8381C41.7919 88.8967 41.6932 88.9553 41.5946 89.0139C41.608 89.0094 41.626 89.0004 41.6394 88.9959C41.5184 88.9959 41.4018 88.9959 41.2807 88.9959C41.2583 88.9869 41.2314 88.9733 41.209 88.9643C41.1282 88.8832 41.0475 88.802 40.9668 88.7209C40.8996 88.6082 40.9623 88.7028 40.9892 88.7795C41.0117 88.8516 41.0386 88.9192 41.061 88.9914C41.1103 89.1311 41.1596 89.2754 41.2045 89.4152C41.3211 89.7623 41.6663 89.9877 42.034 89.8885C42.3658 89.7984 42.6214 89.4016 42.5048 89.0545C42.312 88.4955 42.1506 87.5758 41.3704 87.6795C40.765 87.7606 40.5633 88.5 40.3391 88.9779C40.7471 89.032 41.1596 89.0861 41.5677 89.1402C41.4825 88.8742 41.4421 88.6578 41.4376 88.3963C41.4332 88.0446 41.1327 87.702 40.7651 87.72C40.4108 87.7381 40.0969 88.0221 40.1014 88.4008Z" fill="#727272"/>
<path d="M46.2803 89.2211C46.2444 89.5277 46.2085 89.8388 46.1727 90.1453C46.1368 90.4339 46.4058 90.7269 46.6659 90.799C46.9708 90.8847 47.2533 90.7359 47.4237 90.488C47.5448 90.3121 47.6658 90.1408 47.7869 89.965C47.8407 89.8838 47.899 89.8072 47.9528 89.7261C47.9752 89.6945 47.9976 89.6629 48.02 89.6314C48.1187 89.4961 48.1052 89.5051 47.9842 89.6584C47.8721 89.69 47.76 89.7215 47.6434 89.7486C47.6658 89.7486 47.6838 89.7486 47.7062 89.7486C47.5941 89.717 47.482 89.6855 47.3654 89.6584C47.2309 89.424 47.186 89.3789 47.2309 89.5232C47.2443 89.5773 47.2533 89.6359 47.2667 89.69C47.2892 89.8027 47.3116 89.9109 47.3385 90.0236C47.3878 90.258 47.4102 90.533 47.5313 90.7449C47.6479 90.9433 47.8407 91.1146 48.0649 91.1777C48.4102 91.2724 48.6926 91.0966 48.8944 90.8261C49.1141 90.533 48.9393 90.0687 48.6523 89.9019C48.307 89.699 47.9528 89.8523 47.7331 90.1453C47.7241 90.1589 47.7151 90.1724 47.7062 90.1814C47.899 90.0687 48.0918 89.956 48.2891 89.8478C48.2756 89.8478 48.2622 89.8523 48.2487 89.8523C48.3608 89.8838 48.4729 89.9154 48.5895 89.9425C48.7061 90.0011 48.7778 90.3302 48.7106 89.9966C48.6926 89.9019 48.6702 89.8117 48.6523 89.717C48.6164 89.5502 48.585 89.3834 48.5492 89.2166C48.4684 88.865 48.2577 88.5223 47.89 88.4186C47.482 88.3059 47.1591 88.5404 46.9305 88.8469C46.7018 89.158 46.4865 89.4781 46.2668 89.7937C46.6838 89.9064 47.1008 90.0191 47.5223 90.1363C47.5582 89.8297 47.5941 89.5187 47.6299 89.2121C47.6703 88.8469 47.2892 88.5359 46.9574 88.5359C46.5583 88.5449 46.3251 88.8605 46.2803 89.2211Z" fill="#727272"/>
<path d="M46.926 76.8729C46.76 77.5942 46.6793 78.3336 46.6928 79.073C46.7018 79.7086 47.6344 80.0377 47.9483 79.4156C48.0828 79.1451 48.2173 78.8791 48.3518 78.6086C48.4505 78.4102 48.5222 78.1623 48.7016 78.0225C48.6029 78.0811 48.5043 78.1397 48.4057 78.1984C48.4057 78.1938 48.4057 78.1893 48.4101 78.1848C48.1949 78.018 47.9797 77.8557 47.76 77.6889C47.8452 78.009 47.9304 78.3291 48.0156 78.6492C48.1232 79.0504 48.6388 79.2939 49.002 79.0549C49.0648 79.0144 49.1276 78.9693 49.1903 78.9287C49.9078 78.4508 49.2352 77.2787 48.5133 77.761C48.4505 77.8016 48.3877 77.8467 48.3249 77.8873C48.6523 78.0225 48.9841 78.1578 49.3114 78.293C49.2262 77.9729 49.141 77.6528 49.0558 77.3328C48.9796 77.0487 48.7016 76.8323 48.4057 76.8368C47.4595 76.8549 47.1367 78.0361 46.787 78.7394C47.204 78.8521 47.621 78.9648 48.0425 79.082C48.0335 78.4553 48.0873 77.8512 48.2263 77.2381C48.4146 76.386 47.1188 76.0253 46.926 76.8729Z" fill="#727272"/>
<path d="M45.6436 66.7563C45.675 67.2883 45.7019 67.8157 45.7333 68.3477C45.7691 69.015 46.6211 69.2719 46.9888 68.6904C47.2488 68.2756 47.5089 67.8653 47.769 67.4506C47.3834 67.4506 46.9933 67.4506 46.6076 67.4506C46.7018 67.6129 46.7601 67.7616 46.7691 67.951C46.8005 68.5461 47.4775 68.8301 47.917 68.4289C48.2577 68.1223 48.4774 67.7526 48.6434 67.3243C48.316 67.4596 47.9842 67.5948 47.6569 67.7301C47.6569 67.7391 47.6569 67.7481 47.6524 67.7526C47.5941 67.6534 47.5358 67.5543 47.4775 67.4551C47.491 67.4821 47.4999 67.5137 47.5134 67.5407C47.6524 67.8789 47.9573 68.1178 48.3429 68.0141C48.6568 67.9284 48.9527 67.5227 48.8137 67.1801C48.6972 66.9051 48.5761 66.7383 48.334 66.5579C47.9528 66.2739 47.4865 66.5985 47.3475 66.9637C47.2668 67.1711 47.1278 67.3243 46.9664 67.4731C47.3475 67.6309 47.7331 67.7932 48.1142 67.951C48.0918 67.5272 47.9842 67.135 47.769 66.7698C47.5044 66.3235 46.8767 66.3415 46.6076 66.7698C46.3476 67.1846 46.0875 67.5948 45.8274 68.0096C46.2444 68.1223 46.6615 68.235 47.0829 68.3522C47.0516 67.8202 47.0247 67.2928 46.9933 66.7608C46.9395 65.8907 45.5943 65.8862 45.6436 66.7563Z" fill="#727272"/>
<path d="M46.0068 57.8162C45.9664 58.1588 45.9485 58.5014 45.9575 58.8441C45.9709 59.3129 46.5359 59.7457 46.9708 59.4302C47.195 59.2679 47.334 59.083 47.4103 58.817C47.4282 58.7539 47.4461 58.6818 47.4551 58.6187C47.4641 58.56 47.4999 58.5555 47.4506 58.6006C47.2175 58.817 46.9708 59.1281 46.5987 58.6773C46.639 58.7269 46.6256 58.7223 46.5987 58.6637C46.6301 58.7314 46.6525 58.808 46.6839 58.8756C46.7377 58.9928 46.8184 59.0965 46.9081 59.1867C47.1861 59.4617 47.5986 59.5158 47.9349 59.322C48.2532 59.1416 48.3564 58.7088 48.177 58.3977C47.9887 58.0777 47.5762 57.974 47.2578 58.1543C47.2444 58.1633 47.2264 58.1723 47.213 58.1813C47.3251 58.1498 47.4372 58.1182 47.5537 58.0912C47.5896 58.0867 47.9125 58.267 47.8856 58.276C47.9035 58.3121 47.9035 58.3121 47.89 58.2805C47.8766 58.2445 47.8631 58.2084 47.8452 58.1723C47.7914 58.0416 47.7286 57.9199 47.63 57.8117C47.4103 57.5817 47.0695 57.469 46.7601 57.5682C46.4686 57.6584 46.2758 57.8928 46.1817 58.1768C46.1592 58.24 46.1503 58.3031 46.1323 58.3707C46.1234 58.4023 46.1144 58.4293 46.1099 58.4609C46.092 58.5195 46.092 58.5195 46.1144 58.4609C46.1413 58.3752 46.1996 58.3076 46.2893 58.2625C46.6256 58.4564 46.9619 58.6502 47.3026 58.8486C47.2937 58.5059 47.3116 58.1633 47.352 57.8207C47.3968 57.469 47.0112 57.1309 46.6794 57.1444C46.2803 57.1625 46.0561 57.442 46.0068 57.8162Z" fill="#727272"/>
<path d="M45.5943 50.8823C45.4687 51.3782 45.5315 51.8877 45.796 52.325C46.1099 52.8569 46.8318 52.6946 47.0246 52.1627C47.0964 51.9643 46.9888 52.2844 47.056 52.0815C47.0829 52.0049 47.1054 52.0409 47.0381 52.0725C46.8318 52.1807 46.5538 52.1086 46.4911 51.8381C46.5763 52.1942 46.9753 52.4061 47.3206 52.3114C47.6793 52.2123 47.8766 51.8381 47.7914 51.4774C47.6703 50.9635 47.1143 50.6884 46.6166 50.8057C46.1279 50.9274 45.8902 51.3557 45.7288 51.7975C46.1368 51.7434 46.5493 51.6893 46.9574 51.6352C46.8901 51.518 46.8812 51.527 46.8677 51.3872C46.8767 51.4594 46.8722 51.3692 46.8722 51.3467C46.8812 51.1483 46.8453 51.4278 46.8901 51.234C46.9753 50.8913 46.778 50.4856 46.4193 50.3999C46.0741 50.3278 45.6884 50.5126 45.5943 50.8823Z" fill="#727272"/>
<path d="M26.3671 49.2865C26.1698 49.548 25.9904 49.823 25.8335 50.1116C25.569 50.5849 26.0173 51.3243 26.5913 51.1034C26.7975 51.0268 26.9993 50.9456 27.2056 50.869C26.9321 50.7112 26.6541 50.5534 26.3761 50.3956C26.4119 50.4993 26.4299 50.5669 26.4254 50.6706C26.4209 51.0132 26.7393 51.3784 27.098 51.3468C27.4343 51.3198 27.7212 51.2386 28.0217 51.0944C28.349 50.9366 28.4342 50.4632 28.2638 50.1702C28.0665 49.8321 27.6719 49.7689 27.3446 49.9267C27.2773 49.9583 27.1518 49.9898 27.098 49.9944C27.3222 50.2198 27.5464 50.4452 27.7706 50.6706C27.775 50.4542 27.7437 50.2378 27.6719 50.0349C27.5598 49.7148 27.2056 49.4263 26.8424 49.5616C26.6361 49.6382 26.4344 49.7193 26.2281 49.796C26.4792 50.1251 26.7348 50.4587 26.9859 50.7878C27.1473 50.4993 27.3222 50.2243 27.5195 49.9628C27.7392 49.6698 27.5643 49.2054 27.2773 49.0386C26.941 48.8447 26.5868 48.9935 26.3671 49.2865Z" fill="#727272"/>
<path d="M22.5603 56.8786C22.3047 57.4421 22.085 58.0192 21.9056 58.6143C21.7935 58.984 22.0402 59.3266 22.3765 59.4483C22.6634 59.552 22.9728 59.4889 23.2239 59.3266C23.3315 59.2544 23.4033 59.1823 23.484 59.0876C23.7934 58.718 23.3674 59.1958 23.1163 58.8848C23.058 58.7856 22.9997 58.6864 22.9414 58.5872C22.9056 58.461 22.9325 58.7225 22.9325 58.718C22.9459 58.8217 22.9728 58.9299 23.0266 59.0245C23.1298 59.2003 23.3181 59.3446 23.5109 59.3987C23.8741 59.4979 24.3404 59.3581 24.4974 58.9885C24.6408 58.6548 24.596 58.2626 24.2552 58.0643C23.9727 57.8974 23.4795 57.9696 23.336 58.3077C23.3495 58.2897 23.3629 58.2716 23.3809 58.2581C23.4795 58.1995 23.5781 58.1409 23.6768 58.0823C23.8113 58.1229 23.9458 58.1634 24.0803 58.204C24.1386 58.3032 24.1969 58.4024 24.2552 58.5016C24.2911 58.6278 24.2642 58.3167 24.2552 58.2852C24.2193 58.1499 24.1566 58.0282 24.0669 57.929C23.901 57.7532 23.6858 57.6495 23.4436 57.636C23.2239 57.6269 23.0221 57.6901 22.8428 57.8163C22.7576 57.8749 22.6858 57.9425 22.6186 58.0237C22.3406 58.3483 22.5334 58.0733 22.7396 58.1454C22.8966 58.4249 23.0535 58.6999 23.2105 58.9794C23.3539 58.4971 23.5243 58.0282 23.7306 57.5683C23.8786 57.2347 23.8248 56.8425 23.4885 56.6441C23.1925 56.4683 22.7083 56.545 22.5603 56.8786Z" fill="#727272"/>
<path d="M21.0716 64.8539C20.9281 65.6293 20.9281 66.3822 21.0806 67.1576C21.1568 67.5408 21.5693 67.6851 21.9101 67.631C22.1074 67.5994 22.2912 67.4867 22.4302 67.3379C22.4885 67.2748 22.5423 67.1982 22.5917 67.126C22.6186 67.0855 22.641 67.0449 22.6634 66.9998C22.7038 66.9367 22.6903 66.9412 22.6141 67.0043C22.493 67.0043 22.3764 67.0043 22.2554 67.0043C22.2868 67.0133 22.3181 67.0223 22.3495 67.0314C22.2509 66.9728 22.1522 66.9141 22.0536 66.8555C22.0043 66.7518 21.9998 66.7564 22.0446 66.8691C22.067 66.9232 22.0895 66.9773 22.1119 67.0314C22.1836 67.1666 22.2823 67.2748 22.4078 67.356C22.7082 67.5588 22.9818 67.5453 23.3046 67.3965C23.6364 67.2478 23.7171 66.7609 23.5467 66.4723C23.3494 66.1297 22.9593 66.0801 22.6275 66.2289C22.6051 66.2379 22.5782 66.2514 22.5558 66.2604C22.7307 66.2379 22.9011 66.2154 23.0759 66.1928C23.049 66.1838 23.0221 66.1793 22.9952 66.1703C23.0939 66.2289 23.1925 66.2875 23.2912 66.3461C23.3181 66.4363 23.3181 66.4453 23.2956 66.3777C23.2732 66.3055 23.2463 66.2379 23.2149 66.1748C23.1746 66.0981 23.1297 66.0215 23.067 65.9584C22.8786 65.7555 22.6186 65.6608 22.345 65.6879C22.1074 65.7104 21.8967 65.8276 21.7307 65.999C21.65 66.0801 21.5828 66.1748 21.5245 66.274C21.511 66.301 21.4931 66.3281 21.4796 66.3551C21.3945 66.4814 21.4169 66.4678 21.5514 66.3191C21.8249 66.4768 22.1029 66.6346 22.3809 66.7924C22.2778 66.2695 22.2733 65.733 22.3719 65.21C22.4392 64.8493 22.2733 64.4797 21.9011 64.376C21.5693 64.2903 21.1389 64.4932 21.0716 64.8539Z" fill="#727272"/>
<path d="M22.0311 74.6142C22.2195 74.9929 22.4033 75.3716 22.5916 75.7503C22.7575 76.0839 23.2104 76.1606 23.5108 75.9938C23.753 75.8585 23.9189 75.6421 23.9951 75.3716C24.031 75.2499 24.0534 75.0966 24.04 74.9704C24.0265 74.8261 24.0893 74.8667 24.013 74.9343C23.9144 74.9929 23.8158 75.0515 23.7171 75.1101C23.7081 75.1146 23.6992 75.1146 23.6902 75.1192C23.5781 75.0876 23.466 75.056 23.3494 75.029C23.5826 75.1642 23.6947 75.3806 24.0355 75.3806C24.439 75.3806 24.5287 75.1417 24.7708 74.9028C24.6722 74.9614 24.5735 75.02 24.4749 75.0786C24.3449 74.9974 24.2148 74.9163 24.0848 74.8306C24.1386 75.1913 24.5915 75.3897 24.9143 75.304C25.2999 75.1958 25.4389 74.8351 25.3851 74.47C25.3224 74.0642 24.9412 73.7622 24.5466 73.7216C24.0848 73.6765 23.7844 73.929 23.5647 74.3077C23.6454 74.2265 23.7261 74.1454 23.8068 74.0642C23.7844 74.0822 23.7575 74.1003 23.735 74.1183C23.8471 74.0868 23.9592 74.0552 24.0758 74.0281C24.0534 74.0281 24.0265 74.0281 24.0041 74.0281C24.1162 74.0597 24.2283 74.0913 24.3449 74.1183C24.2641 74.0732 24.0534 73.8433 23.874 73.7937C23.6185 73.7216 23.3494 73.7757 23.1387 73.9335C22.9504 74.0732 22.8203 74.2806 22.7531 74.5015C22.7082 74.6413 22.7575 74.9253 22.6858 75.0245C22.7665 74.9433 22.8472 74.8622 22.9279 74.781C22.901 74.7946 22.8741 74.8126 22.8427 74.8261C23.1476 74.9073 23.457 74.9884 23.7619 75.0696C23.5736 74.6909 23.3898 74.3122 23.2015 73.9335C22.8069 73.149 21.6455 73.8343 22.0311 74.6142Z" fill="#727272"/>
<path d="M26.1833 84.6587C26.1609 85.2403 26.7617 85.5694 27.2684 85.4116C27.5105 85.335 27.6854 85.1637 27.802 84.9473C27.8199 84.9112 27.8379 84.8706 27.8558 84.8346C27.9544 84.6768 27.8558 84.7219 27.5509 84.9788C27.4119 84.9608 27.4747 84.9608 27.5733 85.0149C27.8917 85.1907 28.3087 85.0915 28.4925 84.7715C28.6719 84.4604 28.5687 84.0231 28.2504 83.8472C27.9186 83.6624 27.5419 83.5542 27.1742 83.7075C26.9859 83.7886 26.829 83.9239 26.7214 84.1042C26.69 84.1538 26.6586 84.2124 26.6406 84.271C26.6317 84.2891 26.6227 84.3071 26.6137 84.3251C26.8469 84.0636 27.089 84.0411 27.3446 84.2575C27.4029 84.3567 27.4612 84.4559 27.5195 84.5551C27.524 84.5911 27.5285 84.6272 27.533 84.6633C27.5464 84.3071 27.2146 83.969 26.8604 83.987C26.4792 84.0005 26.1967 84.28 26.1833 84.6587Z" fill="#727272"/>
<path d="M51.0377 51.1576C51.1184 51.5634 51.2574 51.9421 51.4323 52.3163C51.5982 52.6634 52.0511 52.7085 52.3515 52.5597C52.5219 52.4741 52.6609 52.3208 52.7506 52.154C52.7775 52.1044 52.7954 52.0503 52.8223 51.9962C52.9658 51.6851 52.8179 52.154 52.4726 52.1179C52.3605 52.0863 52.2484 52.0548 52.1318 52.0277C52.0556 51.9917 52.2439 52.1134 52.2439 52.1134C52.3157 52.1675 52.365 52.199 52.4502 52.2351C52.625 52.3118 52.8044 52.3253 52.9927 52.2982C53.3963 52.2306 53.6339 51.9691 53.7864 51.604C53.9254 51.2658 53.6339 50.8601 53.3156 50.7699C52.93 50.6617 52.6295 50.9052 52.486 51.2433C52.643 50.9502 52.8403 50.8871 53.0734 51.0539C53.0555 51.0359 53.0376 51.0179 53.0152 51.0043C52.93 50.9187 52.7685 50.8285 52.652 50.797C52.4367 50.7384 52.2036 50.7744 52.0152 50.8871C51.8583 50.9818 51.7462 51.1306 51.67 51.2929C51.652 51.3335 51.6296 51.3785 51.6117 51.4236C51.5624 51.5679 51.5893 51.4326 51.67 51.3966C51.9749 51.4777 52.2843 51.5589 52.5892 51.64C52.4636 51.374 52.3874 51.0945 52.3291 50.806C52.2618 50.4453 51.8314 50.2424 51.4996 50.3326C51.1364 50.4273 50.9705 50.797 51.0377 51.1576Z" fill="#727272"/>
<path d="M52.5982 58.8982C52.6834 59.3265 52.773 59.7548 52.8582 60.1831C53.0017 60.8909 53.9478 60.7602 54.1541 60.1831C54.2214 59.9892 54.3379 59.863 54.4859 59.7278C54.1317 59.6827 53.7819 59.6376 53.4277 59.5925C53.5443 59.863 53.6653 60.138 53.7819 60.4085C53.9164 60.7196 54.4366 60.8548 54.7011 60.652C54.8626 60.5302 54.9926 60.422 55.0957 60.2417C55.1316 60.1786 55.1719 60.1019 55.1944 60.0298C55.2033 59.9983 55.2168 59.9667 55.2347 59.9397C55.3423 59.7413 55.1361 59.6782 54.6115 59.7503C54.5621 60.111 54.9567 60.4265 55.284 60.4265C55.6876 60.4265 55.9073 60.1155 55.9566 59.7503C56.0329 59.1868 55.5082 58.6773 54.9657 58.6773C54.6922 58.6773 54.4455 58.799 54.2617 58.9929C54.1765 59.0831 54.1182 59.1823 54.0599 59.2905C54.0241 59.3626 53.8851 59.588 54.0241 59.4843C54.329 59.5655 54.6384 59.6466 54.9433 59.7278C54.8267 59.4573 54.7056 59.1823 54.589 58.9118C54.4052 58.488 53.8178 58.515 53.5308 58.7765C53.208 59.0695 53.0017 59.4212 52.8538 59.8269C53.2842 59.8269 53.7192 59.8269 54.1496 59.8269C54.0644 59.3987 53.9747 58.9704 53.8895 58.5421C53.7236 57.6855 52.4233 58.0462 52.5982 58.8982Z" fill="#727272"/>
<path d="M53.7774 69.2403C53.7371 69.5784 53.7774 69.9256 53.8671 70.2502C53.9792 70.6424 54.4904 70.9084 54.8536 70.6559C55.0912 70.4891 55.2347 70.3088 55.3379 70.0383C55.3648 69.9707 55.3872 69.8985 55.4096 69.8264C55.45 69.6821 55.4096 69.876 55.293 69.894C55.172 69.894 55.0554 69.894 54.9343 69.894C54.8222 69.8489 54.7505 69.7813 54.7325 69.6821C54.7191 69.6371 54.7236 69.6506 54.7505 69.7227C54.7639 69.7633 54.7774 69.8084 54.7908 69.8489C54.867 70.0563 54.9747 70.2231 55.145 70.3629C55.5127 70.6604 55.9297 70.6109 56.2885 70.3313C56.5754 70.1059 56.5216 69.61 56.2885 69.3756C56.006 69.0915 55.6248 69.1502 55.3379 69.3756C55.3244 69.3891 55.3065 69.3981 55.293 69.4116C55.3917 69.353 55.4903 69.2944 55.589 69.2358C55.571 69.2403 55.5531 69.2448 55.5352 69.2493C55.6562 69.2493 55.7728 69.2493 55.8939 69.2493C55.9746 69.2629 56.0912 69.5108 56.0418 69.362C56.006 69.2448 55.9611 69.1231 55.8983 69.0194C55.71 68.7129 55.3782 68.537 55.024 68.5731C54.7101 68.6047 54.4545 68.803 54.2841 69.0645C54.2124 69.1772 54.1631 69.3034 54.1227 69.4297C54.1093 69.4702 54.0824 69.5289 54.0779 69.5694C54.0734 69.628 54.0644 69.5559 54.1765 69.4793C54.5038 69.6145 54.8357 69.7498 55.163 69.885C55.1002 69.6641 55.0912 69.4657 55.1181 69.2358C55.1585 68.8706 54.7774 68.5596 54.4456 68.5596C54.0554 68.5641 53.8223 68.8752 53.7774 69.2403Z" fill="#727272"/>
<path d="M53.4053 77.202C53.3694 77.6438 53.4053 78.0766 53.4725 78.5139C53.5532 79.0234 54.2752 79.1541 54.598 78.8115C54.7146 78.6898 54.8356 78.568 54.9612 78.4553C55.0733 78.3561 55.1899 78.257 55.2796 78.1938C54.9522 78.0586 54.6204 77.9233 54.2931 77.7881C54.3334 77.9053 54.3334 77.7701 54.32 77.8963C54.329 77.8016 54.2662 77.9819 54.311 77.9053C54.1362 78.2254 54.2348 78.6447 54.5532 78.8295C54.8626 79.0098 55.2975 78.9107 55.4724 78.5861C55.6652 78.2299 55.728 77.8151 55.5934 77.4274C55.4634 77.0577 54.9791 76.7467 54.607 77.0217C54.2662 77.2741 53.9478 77.5446 53.6564 77.8512C54.033 77.9504 54.4052 78.0496 54.7818 78.1488C54.737 77.8557 54.737 77.5131 54.7594 77.193C54.7863 76.8413 54.4321 76.5032 54.0868 76.5168C53.6922 76.5438 53.4367 76.8233 53.4053 77.202Z" fill="#727272"/>
<path d="M52.9748 86.0339C52.7327 86.4442 52.5489 86.895 52.4457 87.3639C52.365 87.72 52.5534 88.0942 52.9165 88.1979C53.2932 88.3016 53.616 88.0717 53.7461 87.7245C53.7864 87.6118 53.9209 87.3684 53.9927 87.2737C53.6743 87.2737 53.3605 87.2737 53.0421 87.2737C52.9614 87.1745 52.939 87.0663 52.9704 86.9401C52.9121 87.3008 53.0645 87.6659 53.4412 87.7741C53.764 87.8643 54.2079 87.6659 54.2707 87.3008C54.3335 86.9266 54.2662 86.5975 53.9972 86.3179C53.764 86.0745 53.2708 86.0339 53.0466 86.3179C52.7865 86.6425 52.5982 86.9716 52.4502 87.3639C52.8807 87.4856 53.3156 87.6028 53.7461 87.7245C53.8313 87.3458 53.9434 87.0483 54.1407 86.7192C54.3245 86.4036 54.2124 85.9753 53.8985 85.795C53.5802 85.6056 53.1632 85.7183 52.9748 86.0339Z" fill="#727272"/>
<path d="M57.8982 88.7343C57.6202 89.0995 57.4901 89.5504 57.4677 90.0057C57.4543 90.2717 57.6471 90.5287 57.8802 90.6233C58.1448 90.7315 58.4004 90.6684 58.6156 90.4836C58.9474 90.1995 59.2792 89.911 59.611 89.627C59.2568 89.5819 58.907 89.5368 58.5528 89.4917C58.5259 89.4512 58.5394 89.3926 58.5439 89.3475C58.5483 89.3159 58.6201 89.2077 58.5483 89.3204C58.3555 89.6315 58.4811 90.0643 58.7905 90.2446C59.1133 90.434 59.5169 90.3123 59.7097 90.0012C59.9384 89.636 59.9339 89.1717 59.7142 88.802C59.4765 88.4052 58.9878 88.3827 58.656 88.6667C58.3241 88.9507 57.9923 89.2393 57.6605 89.5233C58.0416 89.6811 58.4273 89.8434 58.8084 90.0012C58.8174 89.7983 58.7725 90.0913 58.8174 89.8975C58.8353 89.8299 58.8532 89.7577 58.8757 89.6901C58.8398 89.7848 58.9295 89.5954 58.9295 89.5909C58.9653 89.5278 59.0057 89.4692 59.0505 89.4151C59.2702 89.1221 59.0954 88.6577 58.8084 88.4909C58.4721 88.288 58.1224 88.4413 57.8982 88.7343Z" fill="#727272"/>
<path d="M60.3823 79.88C60.2881 80.3939 60.2343 80.9124 60.2298 81.4398C60.2208 82.1025 61.158 82.373 61.4853 81.7825C61.6871 81.4128 61.9247 81.0927 62.2207 80.7951C61.9472 80.8312 61.6781 80.8673 61.4046 80.8988C61.3911 80.8898 61.3732 80.8763 61.3598 80.8673C61.3015 80.7681 61.2432 80.6689 61.1849 80.5697C61.1714 80.5292 61.2163 80.4029 61.1714 80.5472C61.14 80.6373 61.1221 80.7816 61.1176 80.8673C61.1087 81.0837 61.1714 81.2956 61.297 81.4714C61.4405 81.6652 61.6781 81.796 61.9247 81.796C62.0593 81.796 62.2162 81.7554 62.3328 81.6923C62.3552 81.6788 62.3731 81.6698 62.3955 81.6562C62.5032 81.5886 62.4718 81.5841 62.3014 81.6427C62.1893 81.6111 62.0772 81.5796 61.9606 81.5525C61.7812 81.4624 61.7678 81.3587 61.7857 81.2279C61.7364 81.5886 61.8754 81.9538 62.2565 82.062C62.5704 82.1476 63.0323 81.9538 63.0861 81.5886C63.1399 81.2009 63.1219 80.8087 62.826 80.5156C62.678 80.3714 62.4538 80.2857 62.2476 80.2902C62.1131 80.2947 61.9561 80.3398 61.8395 80.4029C61.8081 80.421 61.6602 80.4841 61.7454 80.466C61.8664 80.466 61.983 80.466 62.1041 80.466C62.0862 80.4615 62.0637 80.4525 62.0458 80.448C62.1444 80.5066 62.2431 80.5652 62.3417 80.6238C62.3866 80.998 62.4269 81.0927 62.4673 80.9078C62.4852 80.8628 62.4942 80.8177 62.5032 80.7681C62.5256 80.6644 62.5345 80.5562 62.5256 80.448C62.5076 80.1505 62.3552 79.8664 62.0817 79.7357C61.8126 79.6004 61.4898 79.6185 61.2656 79.8394C60.8934 80.2136 60.5751 80.6373 60.3195 81.0972C60.7365 81.2099 61.1535 81.3226 61.575 81.4398C61.5795 81.0386 61.6109 80.6373 61.6826 80.2406C61.7454 79.88 61.584 79.5103 61.2118 79.4066C60.88 79.3164 60.445 79.5193 60.3823 79.88Z" fill="#727272"/>
<path d="M61.288 70.5704C61.0952 71.0348 61.0907 71.5622 61.2387 72.0401C61.445 72.6983 62.3148 72.6668 62.5346 72.0401C62.6467 71.7155 62.8484 71.4585 63.104 71.2331C62.7229 71.0753 62.3373 70.913 61.9561 70.7553C61.9696 70.9852 61.9875 71.2151 62.001 71.4405C62.0279 71.8372 62.2879 72.0717 62.6736 72.1168C62.8888 72.1438 63.0861 72.0717 63.2654 71.9545C63.3417 71.9049 63.4089 71.8463 63.4672 71.7786C63.4896 71.7471 63.5165 71.72 63.539 71.693C63.6197 71.6073 63.5524 71.6254 63.3327 71.7471C63.2206 71.7155 63.1085 71.684 62.9919 71.6569C62.956 71.6163 62.9157 71.5758 62.8798 71.5352C62.8484 71.4225 62.817 71.3098 62.7901 71.1926C62.7901 71.2106 62.7901 71.2286 62.7946 71.2467C62.826 71.134 62.8574 71.0212 62.8843 70.904C62.8753 70.9176 62.8664 70.9356 62.8574 70.9491C62.4 71.693 63.5659 72.3737 64.0187 71.6299C64.2878 71.1926 64.0636 70.6245 63.5928 70.4532C63.3461 70.363 63.095 70.3811 62.8664 70.5073C62.7722 70.5569 62.6915 70.629 62.6153 70.7057C62.5973 70.7237 62.5839 70.7462 62.5659 70.7643C62.4763 70.8544 62.5121 70.8544 62.6736 70.7643C62.8978 70.9897 63.122 71.2151 63.3461 71.4405C63.3327 71.2106 63.3148 70.9807 63.3013 70.7553C63.261 70.1556 62.6018 69.8806 62.1534 70.2774C61.723 70.6606 61.427 71.1385 61.2387 71.6795C61.6692 71.6795 62.1041 71.6795 62.5346 71.6795C62.4494 71.4044 62.4763 71.1926 62.5839 70.9311C62.7229 70.593 62.4314 70.1872 62.1131 70.097C61.7274 69.9888 61.427 70.2323 61.288 70.5704Z" fill="#727272"/>
<path d="M60.7276 58.7178C60.7634 59.0964 60.8038 59.4797 60.8397 59.8584C60.871 60.192 61.0683 60.4805 61.4226 60.5211C61.7454 60.5617 62.0772 60.3678 62.1624 60.0387C62.2342 59.7502 62.3328 59.4887 62.4763 59.2317C62.0907 59.2317 61.7006 59.2317 61.315 59.2317C61.3822 59.3579 61.4495 59.4842 61.5123 59.6059C61.7589 60.0702 62.4135 60.0161 62.6736 59.6059C62.696 59.5698 62.7274 59.5383 62.7274 59.5247C62.7991 59.4616 62.7498 59.4661 62.5884 59.5383C62.5167 59.5788 62.4449 59.5879 62.3732 59.5743C62.2925 59.4932 62.2118 59.412 62.131 59.3309C62.1266 59.3128 62.1221 59.2948 62.1176 59.2768C62.3777 60.1018 63.678 59.7502 63.4135 58.9161C63.2789 58.4923 62.9112 58.2263 62.4629 58.2399C62.0279 58.2534 61.723 58.578 61.5078 58.9206C61.8934 58.9206 62.2835 58.9206 62.6691 58.9206C62.6019 58.7944 62.5346 58.6682 62.4718 58.5464C62.2387 58.1046 61.5481 58.1091 61.3105 58.5464C61.1177 58.9026 60.9652 59.2813 60.8621 59.678C61.3015 59.7366 61.7409 59.7997 62.1848 59.8584C62.149 59.4797 62.1086 59.0964 62.0727 58.7178C62.0369 58.3526 61.7903 58.0415 61.4002 58.0415C61.0639 58.0415 60.6917 58.3526 60.7276 58.7178Z" fill="#727272"/>
<path d="M57.3959 51.1575C57.5663 51.5902 57.7771 51.9509 58.073 52.3116C58.4138 52.7263 59.055 52.4558 59.1985 52.014C59.3016 51.6894 59.3465 51.3378 59.3151 50.9997C58.8981 51.1124 58.4811 51.2251 58.0596 51.3423C58.1896 51.5948 58.3735 51.8247 58.5932 52.005C58.8757 52.2349 59.2702 52.28 59.5438 52.005C59.7814 51.7661 59.8262 51.2792 59.5438 51.0493C59.463 50.9861 59.3868 50.914 59.324 50.8374C59.2568 50.7517 59.3644 50.905 59.3061 50.8103C59.2747 50.7607 59.2478 50.7111 59.2209 50.6615C59.0819 50.391 58.7366 50.2693 58.4586 50.346C58.1941 50.4181 57.9385 50.7066 57.9654 50.9997C57.9923 51.2837 57.9833 51.3964 57.8982 51.6534C58.2748 51.5542 58.647 51.455 59.0236 51.3558C58.9653 51.2882 58.907 51.2025 58.8398 51.0853C58.8084 51.0312 58.777 50.9726 58.7456 50.9185C58.7366 50.905 58.6649 50.7337 58.6873 50.8013C58.5528 50.4632 58.2389 50.2242 57.8578 50.3279C57.5439 50.4136 57.2614 50.8148 57.3959 51.1575Z" fill="#727272"/>
<path d="M64.1891 50.6345C64.2429 50.9185 64.3506 51.1935 64.4985 51.446C64.651 51.703 64.9693 51.8382 65.2563 51.7571C65.5612 51.6714 65.7226 51.4054 65.7495 51.1034C65.7809 50.7878 65.8123 50.4677 65.8437 50.1521C65.5074 50.346 65.1711 50.5398 64.8303 50.7382C65.0366 50.8915 65.2429 51.0493 65.4491 51.2025C65.7406 51.4189 66.2024 51.2521 66.3683 50.9591C66.5701 50.6165 66.4177 50.2513 66.1262 50.0349C65.9199 49.8816 65.7137 49.7238 65.5074 49.5705C65.3191 49.4308 65.0187 49.4578 64.8303 49.5705C64.6106 49.7013 64.5209 49.9087 64.4985 50.1566C64.4671 50.4722 64.4358 50.7923 64.4044 51.1079C64.8214 50.9952 65.2384 50.8824 65.6599 50.7652C65.5523 50.5849 65.5254 50.4992 65.485 50.2783C65.4177 49.9177 64.9873 49.7148 64.6555 49.805C64.2878 49.9041 64.1264 50.2738 64.1891 50.6345Z" fill="#727272"/>
<path d="M67.1754 58.7494C67.2382 59.1236 67.3279 59.4843 67.449 59.8449C67.588 60.2732 68.0364 60.4536 68.4354 60.2507C68.682 60.1245 68.839 59.89 68.9018 59.624C68.9331 59.5023 68.9376 59.3716 68.9466 59.2408C68.9466 59.1957 68.9511 59.1507 68.9556 59.1056C68.9466 59.2949 68.821 59.4167 68.5744 59.4798C68.4623 59.4482 68.3502 59.4167 68.2337 59.3896C68.7628 59.6511 69.1753 59.8269 69.7806 59.6917C70.6236 59.5023 70.2694 58.1949 69.4219 58.3888C69.2112 58.4384 69.0901 58.3121 68.9107 58.222C68.5969 58.0687 68.2381 58.0912 67.9646 58.3076C67.7584 58.4699 67.6642 58.6953 67.6283 58.9523C67.6149 59.0515 67.6104 59.1462 67.6014 59.2453C67.5925 59.331 67.5969 59.3355 67.6059 59.2679C67.5611 59.4212 67.6104 59.358 67.7584 59.0875C68.0857 59.2228 68.4175 59.358 68.7448 59.4933C68.6282 59.1326 68.5386 58.772 68.4713 58.3978C68.4085 58.0371 67.9691 57.8342 67.6418 57.9244C67.2651 58.0191 67.1127 58.3888 67.1754 58.7494Z" fill="#727272"/>
<path d="M68.7403 68.5325C68.6955 68.8752 68.6462 69.2178 68.6013 69.5604C68.561 69.8625 68.6282 70.16 68.9107 70.3223C69.1439 70.4621 69.5474 70.4486 69.7268 70.2186C69.8254 70.0879 69.9241 69.9797 70.081 69.9256C69.7985 69.7092 69.5116 69.4928 69.2291 69.2719C69.238 69.5424 69.2425 69.8129 69.2515 70.0834C69.265 70.5342 69.6685 70.8408 70.1034 70.7371C70.3187 70.6875 70.498 70.5793 70.6684 70.4441L70.8343 70.3133C70.8209 70.2953 70.6057 70.3088 70.5563 70.2547C70.498 70.1555 70.4397 70.0563 70.3815 69.9572C70.3904 69.9797 70.3949 70.0022 70.4039 70.0248C70.6864 70.8408 71.9867 70.4891 71.6997 69.6641C71.5428 69.2178 71.1841 68.9653 70.7088 68.9789C70.516 68.9834 70.3142 69.0465 70.1483 69.1457C70.0138 69.2268 69.8882 69.3936 69.7358 69.4297C70.0183 69.6461 70.3052 69.8625 70.5877 70.0834C70.5787 69.8129 70.5743 69.5424 70.5653 69.2719C70.5563 68.8571 70.1393 68.4739 69.7133 68.6182C69.3412 68.7489 69.0094 68.9473 68.7672 69.2629C69.1439 69.4838 69.5161 69.7002 69.8927 69.9211C69.9375 69.5785 69.9869 69.2358 70.0317 68.8932C70.081 68.5325 69.9465 68.1674 69.5609 68.0592C69.256 67.9735 68.7897 68.1674 68.7403 68.5325Z" fill="#727272"/>
<path d="M66.8078 79.7311C66.7136 80.1144 66.6194 80.4976 66.5298 80.8808C66.4446 81.2324 66.6374 81.6201 67.0006 81.7148C67.3234 81.8005 67.6328 81.7373 67.8974 81.5255C68.1081 81.3541 68.1843 81.0881 68.3771 80.9213C68.2785 80.9799 68.1798 81.0386 68.0812 81.0972C68.1126 81.0836 68.144 81.0701 68.1798 81.0566C68.0588 81.0566 67.9422 81.0566 67.8211 81.0566C67.8525 81.0611 67.8839 81.0701 67.9198 81.0746C67.7853 80.9709 67.6507 80.8672 67.5162 80.7635C67.5072 80.7094 67.5117 80.723 67.5252 80.8131C67.5566 80.8898 67.588 80.9664 67.6238 81.0431C67.7135 81.1918 67.8525 81.2955 68.005 81.3632C68.1664 81.4353 68.3457 81.4443 68.5206 81.4082C68.5789 81.4037 68.6372 81.3857 68.691 81.3632C68.9556 81.2775 68.9018 81.2504 68.5296 81.2865C68.4489 81.2054 68.3682 81.1242 68.2875 81.0431C68.2964 81.0566 68.3099 81.0746 68.3188 81.0881C68.2875 80.9754 68.2561 80.8627 68.2292 80.7455C68.2292 80.7635 68.2292 80.7861 68.2247 80.8041C68.1843 81.6742 69.5295 81.6742 69.5699 80.8041C69.5878 80.4344 69.3367 80.1234 68.9914 80.0152C68.83 79.9656 68.6507 79.9611 68.4847 80.0016C68.4265 80.0152 68.1978 80.0603 68.265 80.0693C68.3771 80.1008 68.4892 80.1324 68.6058 80.1594C68.5834 80.1459 68.5655 80.1279 68.543 80.1143C68.6237 80.1955 68.7045 80.2766 68.7852 80.3578C68.7538 80.2947 68.682 80.0557 68.5699 79.9385C68.3906 79.7582 68.0633 79.677 67.8211 79.7447C67.6238 79.7988 67.4534 79.916 67.3189 80.0648C67.2472 80.1459 67.1844 80.2361 67.1306 80.3307C67.1127 80.3623 67.0992 80.3939 67.0813 80.4209C66.9557 80.5922 67.0499 80.5877 67.3638 80.4029C67.5207 80.6824 67.6776 80.9574 67.8346 81.2369C67.9287 80.8537 68.0229 80.4705 68.1126 80.0873C68.3099 79.2442 67.014 78.8836 66.8078 79.7311Z" fill="#727272"/>
<path d="M65.3819 87.8642C65.4805 87.9408 65.5792 88.0174 65.6778 88.0941C65.9648 88.3195 66.4311 88.1392 66.597 87.8506C66.7988 87.5035 66.6463 87.1473 66.3549 86.9264C66.2562 86.8498 66.1576 86.7731 66.0589 86.6965C65.772 86.4711 65.3056 86.6514 65.1397 86.94C64.938 87.2871 65.0949 87.6387 65.3819 87.8642Z" fill="#727272"/>
</g>
<g clip-path="url(#clip1_2_2)">
<path d="M35.2992 45.7374C35.8584 41.1054 32.6253 37.647 29.1803 34.9798C27.1737 33.4239 25.2122 32.1259 23.9046 29.8988C23.2372 28.7564 22.5969 27.4672 22.2226 26.2003C21.4922 23.7332 22.7547 19.8569 25.8796 22.7019C27.6787 24.3422 28.0936 26.4581 29.4689 28.2807C30.2444 29.312 31.4349 29.8632 32.6749 29.2053C36.404 27.2316 33.5181 20.3858 32.6839 17.6653C31.6738 14.3714 31.1418 11.2019 32.8417 8.03235C33.4009 6.99215 34.0276 5.92083 34.7446 4.98287C35.209 4.37831 35.7997 3.72485 36.4626 3.30699C37.8334 2.43571 38.6585 2.43571 40.1736 2.89802C41.7879 3.39145 41.8014 3.47591 42.1306 5.0051C42.2839 5.7119 42.347 6.48983 42.3831 7.21886C42.4598 8.76138 42.3335 10.3172 42.0134 11.8331C41.4136 14.7092 39.6866 17.2519 39.3079 20.1725C39.0283 22.3196 39.2222 29.1431 42.8115 28.503C47.0185 27.7517 46.7164 21.0927 50.9099 20.2036C54.4 19.4612 56.1045 23.2442 54.6255 25.8402C53.8229 27.2538 52.4882 28.3474 51.203 29.312C48.9124 31.0323 46.1122 31.9303 43.8621 33.6684C39.7903 36.8246 41.1431 41.7855 42.816 45.853C43.1407 46.6398 44.4483 46.2931 44.1191 45.4974C42.9919 42.7546 41.576 39.3984 43.1001 36.5179C44.5114 33.8507 48.236 32.9172 50.6394 31.3435C53.886 29.2187 58.544 25.2179 55.7934 21.0082C53.4937 17.4831 49.0386 18.6611 46.9374 21.6128C46.3016 22.5063 45.8101 23.4887 45.2464 24.4266C44.9894 24.8534 44.7324 25.2846 44.4303 25.6846C44.2138 25.9425 43.9974 26.1959 43.781 26.4537C42.072 26.8271 41.1882 26.3781 41.1296 25.0979C39.4161 21.5061 41.4903 17.8254 42.6537 14.5136C43.5194 12.0509 43.8892 9.42817 43.7043 6.82767C43.578 5.02732 43.3887 2.5913 41.6707 1.51554C40.1601 0.568686 37.8379 1.11101 36.3544 1.84893C34.1449 2.95137 32.7921 5.2896 31.6738 7.37C28.8015 12.7133 31.7009 17.4208 32.7696 22.8041C32.9094 23.5198 33.2656 25.089 33.0266 25.8847C32.2961 26.5426 31.5656 27.1961 30.8306 27.854C30.4113 27.325 30.0956 26.7471 29.8747 26.1114C29.4508 25.1823 29.0044 24.3155 28.3867 23.4887C27.4127 22.1817 25.5729 20.0347 23.6926 20.1414C21.8664 20.248 20.7932 22.1506 20.5993 23.7376C20.3107 26.0847 21.5868 28.5874 22.7412 30.5789C25.9427 36.0956 34.8663 38.1271 33.9465 45.7463C33.8473 46.5865 35.2 46.582 35.2992 45.7374Z" fill="#46A358"/>
<path d="M46.9869 23.573C47.9609 18.7054 46.1212 14.2557 45.7379 9.45031C45.5079 6.57865 46.748 1.98665 50.689 3.29357C53.6244 4.26709 54.7382 7.71664 54.5398 10.4772C54.3955 12.4953 53.4125 18.4165 57.3535 17.8653C60.7354 17.3941 62.4804 11.8374 64.1218 9.48143C65.5286 7.46326 68.6354 4.51603 71.368 5.33841C75.6968 6.64088 72.9237 11.7619 70.9306 13.7756C67.5713 17.1674 63.991 20.1679 61.0285 23.9464C59.3105 26.138 57.8225 29.7387 61.6327 30.7211C63.0982 31.0989 64.5096 30.5966 65.8307 30.0009C66.8949 29.5209 67.9095 28.9474 69.0413 28.6318C71.1065 28.0539 73.5008 28.5073 72.1346 31.0367C68.9376 36.9623 61.6192 32.5926 56.8981 35.0775C52.8939 37.189 51.9605 41.8566 52.3393 45.9507C52.416 46.7997 53.7732 46.8086 53.6921 45.9507C53.426 43.0968 53.656 40.0118 55.6581 37.7491C58.2463 34.8241 61.7003 35.891 65.1273 35.8243C68.6264 35.7576 73.1311 34.0862 73.8571 30.2321C74.6507 26.0091 69.7718 26.827 67.2692 27.845C66.1644 28.294 65.1318 28.9919 63.9775 29.3208C63.0621 29.5831 61.6147 29.7253 60.8932 28.8763C60.1943 28.0495 60.7579 26.6581 61.1908 25.9557C62.7735 23.3774 65.1995 21.0259 67.3548 18.9055C70.3264 15.9805 75.3947 12.8776 74.9573 8.10783C74.6236 4.45824 71.2057 3.1202 68.0538 4.48935C66.1599 5.31174 64.5952 6.61865 63.3597 8.25008C61.7454 10.3794 60.8842 13.3044 58.9588 15.1803C58.2644 15.856 57.5835 17.2918 56.0323 15.8827C55.3424 15.2559 55.5498 13.5844 55.622 12.7265C55.7167 11.6018 55.9602 10.5038 55.9241 9.3703C55.8655 7.45437 55.2207 5.51177 53.9626 4.02704C51.3022 0.897549 46.7344 1.03535 44.9668 4.96056C43.9117 7.30768 44.3761 9.99264 44.818 12.4287C45.4674 16.0249 46.4188 19.5545 45.6838 23.2174C45.517 24.0576 46.8201 24.4176 46.9869 23.573Z" fill="#46A358"/>
<path d="M46.6849 32.0059C46.0491 36.589 45.0075 41.0787 43.5555 45.4796C43.285 46.2975 44.5926 46.6487 44.8587 45.8352C46.3106 41.4344 47.3522 36.9446 47.988 32.3615C48.1053 31.5169 46.8021 31.1568 46.6849 32.0059Z" fill="#46A358"/>
<path d="M30.5059 44.9728C30.3301 41.4432 27.8455 39.0605 24.9867 37.2468C23.1335 36.0688 21.1043 35.0864 19.5126 33.5528C18.8272 32.8949 17.5511 31.6191 17.4835 30.5967C17.2535 27.1871 21.4786 29.841 22.4165 30.6278C23.0748 31.1834 24.0353 30.241 23.3724 29.6854C21.898 28.4451 19.2511 26.8315 17.2265 27.765C15.5941 28.5163 15.8647 30.3788 16.4915 31.7213C19.1293 37.4247 28.806 38.0781 29.1532 44.9728C29.1938 45.8263 30.551 45.8307 30.5059 44.9728Z" fill="#46A358"/>
<path d="M60.8391 46.293C62.5256 43.7859 64.7486 41.7366 67.4721 40.3585C69.9522 39.105 73.0274 38.8871 75.2234 37.1135C77.744 35.0775 77.8748 30.0855 73.7038 30.2144C72.8335 30.241 72.8335 31.5746 73.7038 31.548C75.3496 31.7702 76.017 32.6682 75.7149 34.2374C75.3767 35.1398 74.804 35.851 73.9969 36.3667C73.0094 37.0557 71.8099 37.3713 70.6736 37.7269C69.2262 38.1803 67.8148 38.656 66.4756 39.3672C63.6889 40.852 61.4118 43.0302 59.6668 45.6218C59.1843 46.3375 60.3567 47.0043 60.8391 46.293Z" fill="#46A358"/>
<path d="M64.5141 34.5619C58.7829 35.6287 56.6681 41.252 55.3109 46.173C55.0809 47.0043 56.3886 47.3554 56.614 46.5286C57.8495 42.0522 59.6307 36.8245 64.8748 35.851C65.7271 35.6865 65.3663 34.4018 64.5141 34.5619Z" fill="#46A358"/>
<path d="M34.2937 14.2647C33.6218 11.602 34.4605 8.68585 36.6339 6.89884C37.0713 6.52099 37.5673 6.23205 38.1129 6.03201C39.6145 6.34762 40.3134 7.13889 40.2097 8.4058C40.2368 9.14372 40.0925 9.87275 39.9166 10.584C39.5604 12.0198 38.9336 13.3845 38.4692 14.7893C37.2742 18.4077 35.5562 24.3244 38.7848 27.405C39.0959 27.7029 39.5784 27.2317 39.2628 26.9338C36.431 24.2355 37.883 19.0479 38.8524 15.8161C39.6911 13.0156 41.9683 9.29486 40.4307 6.35207C39.2312 4.05829 36.4806 5.92087 35.3127 7.26336C33.5857 9.25041 33.0041 11.922 33.6398 14.4425C33.7481 14.8604 34.3974 14.6826 34.2937 14.2647Z" fill="#46A358"/>
<path d="M48.5877 25.0623C48.9755 24.2132 49.7601 23.013 50.8107 22.8707C52.4115 22.6529 53.2367 24.6355 52.3799 25.9469C51.5728 27.1827 50.0352 28.0451 48.7095 28.5741C46.5045 29.4498 45.0255 30.6589 43.4247 32.3881C43.1316 32.7038 43.6096 33.1794 43.9027 32.8593C44.8722 31.8058 45.8642 30.7123 47.1268 29.9832C48.1323 29.4009 49.3002 29.1742 50.3102 28.6052C51.5412 27.9073 53.5343 26.4003 53.6786 24.88C53.7958 23.6531 52.4837 22.2306 51.2572 22.155C49.7782 22.0617 48.5426 23.5553 48.006 24.7289C47.8257 25.1112 48.4119 25.4535 48.5877 25.0623Z" fill="#46A358"/>
<path d="M23.3003 25.8358C23.4491 24.6667 23.8955 24.2355 24.635 24.5511C24.8965 24.5556 25.113 24.6489 25.2934 24.8312C25.6496 25.0623 25.8841 25.4046 26.096 25.7647C26.4748 26.4093 26.6506 27.1605 26.9302 27.8451C27.2864 28.7253 27.7554 29.441 28.5625 29.9655C28.9277 30.2055 29.2659 29.6277 28.9052 29.3876C26.9212 28.0896 27.4758 24.72 24.9957 23.9021C23.5077 23.4131 22.0107 24.6845 22.7186 26.1692C22.9035 26.5604 23.4852 26.2226 23.3003 25.8358Z" fill="#46A358"/>
<path d="M47.5326 8.58367C47.1809 6.66329 49.2325 5.13411 50.8017 6.53438C51.6675 7.30786 52.0012 8.73036 52.0057 9.84169C52.0147 11.3486 51.3158 12.6956 51.6134 14.207C51.6945 14.6293 52.3484 14.4515 52.2672 14.0292C51.8929 12.131 52.9661 10.3129 52.4836 8.34362C52.1951 7.16561 51.6089 5.85425 50.3733 5.40972C48.1458 4.61401 46.509 6.73887 46.8787 8.75703C46.9599 9.17934 47.6092 9.00152 47.5326 8.58367Z" fill="#46A358"/>
<path d="M47.1944 12.98C48.2946 15.2605 48.8357 17.2609 48.7546 19.7902C48.741 20.2214 49.4174 20.217 49.4309 19.7902C49.5166 17.1319 48.9304 15.0293 47.7806 12.6466C47.5912 12.2599 47.0095 12.5977 47.1944 12.98Z" fill="#46A358"/>
<path d="M64.735 11.0729C65.3888 9.60153 66.6243 8.67246 68.0538 7.97455C68.4641 7.76117 68.8879 7.5878 69.3298 7.45C71.2372 8.09012 71.7197 8.97474 70.7773 10.1127C70.3264 10.8106 69.6725 11.4374 69.1089 12.0509C66.9625 14.3847 64.6448 16.5451 62.1963 18.5633C61.8627 18.8389 62.3406 19.3101 62.6743 19.0345C64.8883 17.2119 66.9941 15.2737 68.9601 13.1933C70.1415 11.9442 72.4096 10.0905 71.9136 8.1168C70.9261 4.20493 64.9785 8.86805 64.1488 10.7395C63.9775 11.1263 64.5637 11.4641 64.735 11.0729Z" fill="#46A358"/>
<path d="M60.9158 20.9858C58.7559 22.5506 57.4437 24.831 57.1957 27.4582C57.1551 27.885 57.8315 27.8805 57.8721 27.4582C58.0976 25.0844 59.306 22.9729 61.2585 21.5593C61.6057 21.3104 61.2675 20.728 60.9158 20.9858Z" fill="#46A358"/>
<path d="M65.195 32.1082C65.6369 31.8459 66.0788 31.5703 66.5432 31.3436C66.8949 31.1524 67.2647 31.0057 67.6525 30.9035C68.3785 30.6056 68.622 31.1613 68.3785 32.5705C67.9005 33.4995 65.3122 33.5351 64.5096 33.4862C62.503 33.3706 60.6137 32.8283 58.6341 33.4284C58.2193 33.5529 58.3952 34.1974 58.8145 34.073C61.1908 33.3484 63.504 34.4019 65.9029 34.1397C67.2061 33.993 69.0503 33.4017 69.6996 32.1571C70.0604 31.4636 69.9747 30.5479 69.1856 30.17C67.8915 29.5521 65.8714 30.9213 64.8523 31.5303C64.4825 31.757 64.8207 32.3349 65.195 32.1082Z" fill="#46A358"/>
<path d="M55.1395 34.5886C51.6224 37.4025 50.3417 41.67 49.9855 45.973C49.9495 46.3998 50.6258 46.3998 50.6619 45.973C51.0046 41.8345 52.2356 37.7626 55.6175 35.0598C55.9557 34.7887 55.4732 34.3219 55.1395 34.5886Z" fill="#46A358"/>
<path d="M40.0022 35.722C38.9561 37.5091 38.9877 39.4561 39.2176 41.4565C39.4115 43.1368 39.6325 44.786 40.8094 46.0929C41.098 46.413 41.5759 45.9418 41.2873 45.6217C40.133 44.3415 39.9887 42.5634 39.8354 40.9275C39.6731 39.2249 39.6956 37.5757 40.5884 36.0554C40.8049 35.6865 40.2232 35.3531 40.0022 35.722Z" fill="#46A358"/>
<path d="M21.3433 31.3301C19.3864 31.3568 20.1619 33.3883 21.2081 34.1173C22.5157 35.0286 24.0037 35.6376 25.3926 36.4066C27.0294 37.3135 27.6877 38.8427 28.9458 40.1185C29.2479 40.4252 29.7259 39.954 29.4238 39.6473C28.1747 38.3804 27.5705 36.8645 25.9607 35.9577C25.1491 35.4998 24.2968 35.1131 23.4807 34.673C23.0568 34.4463 22.633 34.2195 22.2271 33.9662C22.0648 33.8684 21.898 33.7661 21.7356 33.6683C20.9285 33.366 20.8022 32.8104 21.3478 32.0013C21.7762 31.9924 21.7762 31.3257 21.3433 31.3301Z" fill="#46A358"/>
<path d="M72.2383 34.402C72.2608 35.2911 71.846 35.7756 70.9848 35.8601C70.5699 36.0245 70.1596 36.1846 69.7447 36.349C69.127 36.5935 68.5047 36.838 67.887 37.0825C66.444 37.6515 64.9966 38.225 63.5536 38.794C63.1523 38.9495 63.3282 39.5986 63.734 39.4385C65.3844 38.7851 67.0347 38.1361 68.6851 37.4826C69.9071 36.9981 71.4672 36.6513 72.5539 35.8956C73.4964 35.2377 73.5234 33.873 72.2338 33.7352C71.8054 33.6863 71.8099 34.3576 72.2383 34.402Z" fill="#46A358"/>
<path d="M62.0025 39.7183C60.1898 41.4076 58.7604 43.3902 57.7503 45.6395C57.5745 46.0262 58.1561 46.3685 58.3365 45.9773C59.324 43.7814 60.7083 41.8432 62.4849 40.194C62.7961 39.8962 62.3181 39.425 62.0025 39.7183Z" fill="#46A358"/>
<path d="M30.5511 42.6347C31.0696 43.3904 31.4033 44.2038 31.5611 45.1018C31.6333 45.5241 32.2871 45.3463 32.215 44.924C32.0481 43.9771 31.6829 43.0925 31.1373 42.2968C30.8938 41.9456 30.3076 42.279 30.5511 42.6347Z" fill="#46A358"/>
</g>
<defs>
<clipPath id="clip0_2_2">
<rect width="55" height="48" fill="white" transform="translate(19 46)"/>
</clipPath>
<clipPath id="clip1_2_2">
<rect width="61" height="46" fill="white" transform="translate(16 1)"/>
</clipPath>
</defs>
</svg>
